# xmcd
#
# Track frame offsets: 
#        150
#        13261
#        36428
#        50907
#        65720
#        75904
#        87210
#        100135
#        112431
#        124613
#        138340
#        150883
#        162715
#        175650
#        187624
#        199322
#        213153
#        224281
#        236583
#        250136
#        263720
#        274799
#        287576
#        298801
#        310737
#
# Disc length: 4307 seconds
#
# Revision: 0
# Processed by: cddbd v1.5.2PL0 Copyright (c) Steve Scherf et al.
# Submitted via: ExactAudioCopy v1.0b2
#
DISCID=6f10d119
DTITLE=Essential West Coast Blues - Essential West Coast Blues
DYEAR=2012
DGENRE=Blues
TTITLE0=J. D. Edwards - West Coast Blues
TTITLE1=Ray Charles - What'd I Say?
TTITLE2=T-Bone Walker - Cold, Cold Feeling
TTITLE3=Johny "Guitar" Watson - Cuttin' In
TTITLE4=Little George Smith - You Don't Love Me
TTITLE5=Jimmy Liggins - Talking That Talk
TTITLE6=Jimmy Liggins - The Thrill Is Gone
TTITLE7=Lafayette Thomas - Jumpin' In The Heart Of Town
TTITLE8=Maxwell Davis Orchestra - Popsicle
TTITLE9=Roy Brown - Hard Luck Blues
TTITLE10=Johnny Otis and his Orchestra - Goomp Blues
TTITLE11=Duke Henderson - Did You Ever Love A Woman?
TTITLE12=Big Mama Thornton - Hound Dog
TTITLE13=Roy Milton and his Solid Senders - Junior Jives
TTITLE14=Saunders King - Goin' Mad
TTITLE15=Sugar Pie DeSanto - I Want To Know
TTITLE16=Pee Wee Crayton - I'm Still In Love With You
TTITLE17=Lloyd Glenn - Tipsy
TTITLE18=Floyd Dixon - Call Operator 210
TTITLE19=Etta James - All I Could Do Was Cry
TTITLE20=Peppermint Harris - Got Loaded
TTITLE21=Eddie "Cleanhead" Vinsent - Lazy Gal
TTITLE22=Alton Redd with King Porter - Chuttlin' Ball
TTITLE23=Gene Phillips ahd his Rhythm Aces - Rock Bottom
TTITLE24=Cecil Gant - I Wonder
EXTD=
EXTT0=
EXTT1=
EXTT2=
EXTT3=
EXTT4=
EXTT5=
EXTT6=
EXTT7=
EXTT8=
EXTT9=
EXTT10=
EXTT11=
EXTT12=
EXTT13=
EXTT14=
EXTT15=
EXTT16=
EXTT17=
EXTT18=
EXTT19=
EXTT20=
EXTT21=
EXTT22=
EXTT23=
EXTT24=
PLAYORDER=
